<svg width="50" height="50" viewBox="0 0 50 50" fill="none" xmlns="http://www.w3.org/2000/svg">
<path d="M37.5 26.5625L40.4875 32.3484L46.875 33.2766L42.1875 37.5L43.3922 43.75L37.5 40.2344L31.6078 43.75L32.8125 37.5L28.125 33.2766L34.6875 32.3484L37.5 26.5625ZM9.375 25H18.75V28.125H9.375V25ZM9.375 18.75H25V21.875H9.375V18.75ZM9.375 12.5H25V15.625H9.375V12.5Z" fill="black"/>
<path d="M25 40.625H6.25V9.375H43.75V25H46.875V9.375C46.875 8.5462 46.5458 7.75134 45.9597 7.16529C45.3737 6.57924 44.5788 6.25 43.75 6.25H6.25C5.4212 6.25 4.62634 6.57924 4.04029 7.16529C3.45424 7.75134 3.125 8.5462 3.125 9.375V40.625C3.125 41.4538 3.45424 42.2487 4.04029 42.8347C4.62634 43.4208 5.4212 43.75 6.25 43.75H25V40.625Z" fill="black"/>
</svg>
