<svg width="100" height="100" viewBox="0 0 100 100" fill="none" xmlns="http://www.w3.org/2000/svg">
<g clip-path="url(#clip0_53_6)">
<path d="M100 72.8333C100 74.2012 99.7306 75.5558 99.2071 76.8196C98.6836 78.0834 97.9163 79.2317 96.949 80.199C95.9818 81.1663 94.8334 81.9336 93.5696 82.457C92.3058 82.9805 90.9513 83.25 89.5833 83.25L62.5 83.3333C55.5833 83.3333 50 77.75 50 70.8333C50 64.1666 55.25 58.75 61.8333 58.4166C63.0014 55.9075 64.8602 53.7833 67.1921 52.2926C69.524 50.802 72.2324 50.0067 75 50C82.3333 50 88.3333 55.4166 89.375 62.4583C89.4583 62.4583 89.5 62.4166 89.5833 62.4166C90.9513 62.4166 92.3058 62.6861 93.5696 63.2095C94.8334 63.733 95.9818 64.5003 96.949 65.4676C97.9163 66.4349 98.6836 67.5832 99.2071 68.847C99.7306 70.1108 100 71.4654 100 72.8333ZM41.6667 62.5C41.6667 60.2083 39.7917 58.3333 37.5 58.3333C35.2083 58.3333 33.3333 60.2083 33.3333 62.5V68.5C28.25 63.9166 25 57.375 25 50C25 40.0833 30.7917 31.5416 39.1667 27.5C40.7083 26.75 41.6667 25.1666 41.6667 23.4583C41.6667 20.5 38.625 18.5416 35.9583 19.7916C24.5417 25.125 16.6667 36.625 16.6667 50C16.6667 60 21.0833 68.9166 28.0417 75H20.8333C18.5417 75 16.6667 76.875 16.6667 79.1666C16.6667 81.4583 18.5417 83.3333 20.8333 83.3333H37.5C39.7917 83.3333 41.6667 81.4583 41.6667 79.1666V62.5ZM79.1667 25C81.4583 25 83.3333 23.125 83.3333 20.8333C83.3333 18.5416 81.4583 16.6666 79.1667 16.6666H62.5C60.2083 16.6666 58.3333 18.5416 58.3333 20.8333V37.5C58.3333 39.7916 60.2083 41.6666 62.5 41.6666C64.7917 41.6666 66.6667 39.7916 66.6667 37.5V31.5C70.75 35.2083 73.6667 40.1666 74.6667 45.8333H83.0833C82.0603 37.7673 78.1174 30.3557 72 25H79.1667Z" fill="black"/>
</g>
<defs>
<clipPath id="clip0_53_6">
<rect width="100" height="100" fill="white"/>
</clipPath>
</defs>
</svg>
