<svg width="100" height="100" viewBox="0 0 100 100" fill="none" xmlns="http://www.w3.org/2000/svg">
<path d="M90.875 42.7083C90.625 42.5417 88.5416 40.9167 84.0416 40.9167C82.875 40.9167 81.7083 41.0417 80.5416 41.25C79.6666 35.4167 74.7916 32.4583 74.5833 32.3333L73.375 31.625L72.625 32.75C71.625 34.25 70.8333 35.9583 70.5 37.7083C69.6666 41.0417 70.1666 44.2083 71.875 46.9167C69.8333 48.0833 66.5 48.375 65.7916 48.375H10.9166C9.49998 48.375 8.33331 49.5417 8.33331 51C8.33331 55.7917 9.08331 60.5833 10.75 65.0833C12.625 70.0417 15.4583 73.7083 19.0833 75.9583C23.1666 78.4583 29.875 79.875 37.5 79.875C40.7916 79.875 44.2083 79.5833 47.5833 78.9583C52.25 78.125 56.75 76.5 60.875 74.125C64.2913 72.1714 67.3491 69.6491 69.9166 66.6667C74.2916 61.7917 76.875 56.25 78.75 51.4583H79.5416C84.2916 51.4583 87.25 49.5417 88.875 47.9167C89.9583 46.9167 90.75 45.7083 91.3333 44.2917L91.6666 43.2917L90.875 42.7083ZM16.0416 46.8333H23.375C23.7083 46.8333 24.0416 46.5417 24.0416 46.1667V39.5833C24.0416 39.25 23.75 38.9167 23.375 38.9167H16.0416C15.6666 38.9167 15.375 39.2083 15.375 39.5833V46.1667C15.4166 46.5417 15.6666 46.8333 16.0416 46.8333ZM26.1666 46.8333H33.5C33.8333 46.8333 34.1666 46.5417 34.1666 46.1667V39.5833C34.1666 39.25 33.875 38.9167 33.5 38.9167H26.1666C25.7916 38.9167 25.5 39.2083 25.5 39.5833V46.1667C25.5416 46.5417 25.7916 46.8333 26.1666 46.8333ZM36.4583 46.8333H43.75C44.1666 46.8333 44.4583 46.5417 44.4583 46.1667V39.5833C44.4583 39.25 44.2083 38.9167 43.75 38.9167H36.4583C36.125 38.9167 35.8333 39.2083 35.8333 39.5833V46.1667C35.8333 46.5417 36.0833 46.8333 36.4583 46.8333ZM46.625 46.8333H54C54.3333 46.8333 54.625 46.5417 54.625 46.1667V39.5833C54.625 39.25 54.375 38.9167 54 38.9167H46.625C46.2916 38.9167 46 39.2083 46 39.5833V46.1667C46 46.5417 46.2916 46.8333 46.625 46.8333ZM26.1666 37.5H33.5C33.8333 37.5 34.1666 37.125 34.1666 36.75V30.2083C34.1666 29.8333 33.875 29.5417 33.5 29.5417H26.1666C25.7916 29.5417 25.5 29.7917 25.5 30.2083V36.75C25.5416 37.125 25.7916 37.5 26.1666 37.5ZM36.4583 37.5H43.75C44.1666 37.5 44.4583 37.125 44.4583 36.75V30.2083C44.4583 29.8333 44.2083 29.5417 43.75 29.5417H36.4583C36.125 29.5417 35.8333 29.7917 35.8333 30.2083V36.75C35.8333 37.125 36.0833 37.5 36.4583 37.5ZM46.625 37.5H54C54.3333 37.5 54.625 37.125 54.625 36.75V30.2083C54.625 29.8333 54.3333 29.5417 54 29.5417H46.625C46.2916 29.5417 46 29.7917 46 30.2083V36.75C46 37.125 46.2916 37.5 46.625 37.5ZM46.625 28H54C54.3333 28 54.625 27.7083 54.625 27.3333V20.8333C54.625 20.4167 54.3333 20.125 54 20.125H46.625C46.2916 20.125 46 20.375 46 20.8333V27.3333C46 27.6667 46.2916 28 46.625 28ZM56.875 46.8333H64.2083C64.5833 46.8333 64.875 46.5417 64.875 46.1667V39.5833C64.875 39.25 64.5833 38.9167 64.2083 38.9167H56.875C56.5416 38.9167 56.25 39.2083 56.25 39.5833V46.1667C56.25 46.5417 56.5416 46.8333 56.875 46.8333Z" fill="black" fill-opacity="0.8"/>
</svg>
