<svg width="100" height="100" viewBox="0 0 100 100" fill="none" xmlns="http://www.w3.org/2000/svg">
<path d="M68.75 25.3333C68.75 25.3333 40.25 32.4583 53.9167 48.1666C57.9583 52.7916 52.875 56.9583 52.875 56.9583C52.875 56.9583 63.0833 51.7499 58.3333 45.0832C53.9167 38.9583 50.5833 35.9166 68.75 25.3333ZM50.125 30.3333C67 16.9999 58.3333 8.33325 58.3333 8.33325C61.8333 22.0833 46 26.2499 40.2917 34.8333C36.375 40.6666 42.2083 46.9583 50 54.1666C47.0417 47.0833 36.5833 40.9999 50.125 30.3333ZM39.0417 72.7916C26.2083 76.3749 46.875 83.7499 63.1667 76.7916C61.5833 76.1666 60.0417 75.4166 58.5833 74.5416C52.9167 75.8332 47.0833 76.0832 41.3333 75.2916C35.875 74.6249 39.0417 72.7916 39.0417 72.7916ZM61.2083 65.7916C53.9167 67.3749 46.375 67.7499 38.9583 66.8749C33.5 66.3332 37.0833 63.6666 37.0833 63.6666C22.9167 68.3749 44.9167 73.6666 64.5833 67.9166C63.375 67.4582 62.2083 66.6666 61.2083 65.7916ZM75.4583 79.5416C75.4583 79.5416 77.8333 81.4999 72.9167 82.9999C63.4167 85.8333 33.625 86.7083 25.375 83.1249C22.4167 81.8333 28 80.0416 29.75 79.6666C30.7083 79.4166 31.6667 79.3333 32.625 79.3333C29.3333 77.0833 11.25 83.9166 23.5 85.8333C56.7083 91.2499 84.0833 83.3333 75.4583 79.5416ZM64.0417 59.2916C65.25 58.4999 66.5417 57.8332 67.875 57.2499C67.875 57.2499 61.5833 58.3333 55.2917 58.9166C48.625 59.5833 41.9167 59.6666 35.25 59.1666C25.4583 57.8749 40.625 54.1666 40.625 54.1666C36.0417 54.1666 31.5417 55.2499 27.4583 57.2916C18.9167 61.4582 48.7083 63.3332 64.0417 59.2916ZM67.7917 69.3749C67.7083 69.5416 67.625 69.6666 67.4583 69.7916C88.3333 64.3333 80.6667 50.4582 70.6667 53.9166C70.125 54.1666 69.6667 54.4999 69.375 54.9582C69.9583 54.7499 70.5417 54.5832 71.1667 54.4582C76.1667 53.4582 83.3333 61.2499 67.7917 69.3749ZM68.3333 88.5833C55.7917 90.7499 42.9583 90.9166 30.3333 89.1666C30.3333 89.1666 32.25 90.7499 42.0417 91.3749C57.0417 92.3333 80.0833 90.8333 80.625 83.7499C80.75 83.7916 79.6667 86.4583 68.3333 88.5833Z" fill="black" fill-opacity="0.8"/>
</svg>
