<svg width="100" height="99" viewBox="0 0 100 99" fill="none" xmlns="http://www.w3.org/2000/svg">
<path d="M83.7402 28.541C84.3913 29.9408 85.026 31.3405 85.6445 32.7402C86.263 34.14 87.028 35.4746 87.9395 36.7441C87.7441 37.1999 87.4349 37.6068 87.0117 37.9648C86.5885 38.3229 86.084 38.6159 85.498 38.8438C84.9121 39.0716 84.3587 39.2669 83.8379 39.4297C83.3171 39.5924 82.7962 39.6738 82.2754 39.6738C81.429 39.6738 80.7617 39.446 80.2734 38.9902C79.7852 38.5345 79.5247 37.8509 79.4922 36.9395C79.9154 36.7441 80.3874 36.6302 80.9082 36.5977C81.429 36.5651 81.9499 36.5326 82.4707 36.5C82.9915 36.4674 83.4961 36.4186 83.9844 36.3535C84.4727 36.2884 84.9121 36.1419 85.3027 35.9141C85.0749 35.3281 84.8633 34.7747 84.668 34.2539C84.4727 33.7331 84.2773 33.196 84.082 32.6426C83.8867 32.0892 83.7402 31.5521 83.6426 31.0312C83.5449 30.5104 83.4798 29.9082 83.4473 29.2246V28.541H83.7402ZM18.1152 45.3867C18.2454 44.4427 18.571 43.6289 19.0918 42.9453C19.6126 42.2617 20.3939 41.9036 21.4355 41.8711C22.2168 41.8711 22.9167 42.0501 23.5352 42.4082C24.1536 42.7663 24.6745 43.222 25.0977 43.7754C25.5208 44.3288 25.8626 44.9798 26.123 45.7285C26.3835 46.4772 26.5137 47.1771 26.5137 47.8281C26.5137 48.3815 26.4648 48.9023 26.3672 49.3906C26.0417 49.1953 25.765 48.8698 25.5371 48.4141C25.3092 47.9583 25.0814 47.4863 24.8535 46.998C24.6257 46.5098 24.3815 46.0866 24.1211 45.7285C23.8607 45.3704 23.5514 45.1914 23.1934 45.1914C22.7376 45.1914 22.3958 45.3216 22.168 45.582C21.9401 45.8424 21.7611 46.2005 21.6309 46.6562C21.5007 47.112 21.4193 47.5514 21.3867 47.9746C21.3542 48.3978 21.3379 48.8372 21.3379 49.293V52.1738C20.7845 51.653 20.4264 50.9531 20.2637 50.0742C20.1009 49.1953 20.0033 48.3978 19.9707 47.6816C19.9707 47.0957 20.0195 46.5098 20.1172 45.9238C20.2148 45.3379 20.3939 44.7845 20.6543 44.2637C20.459 44.166 20.2474 44.1172 20.0195 44.1172C19.5638 44.1172 19.222 44.2637 18.9941 44.5566C18.7663 44.8496 18.4733 45.1263 18.1152 45.3867ZM83.7891 69.9961C83.7891 70.3867 84.0495 70.875 84.5703 71.4609C85.0911 72.0469 85.7747 72.6816 86.6211 73.3652C87.4674 74.0488 88.3464 74.7975 89.2578 75.6113C90.1693 76.4251 91.0807 77.2064 91.9922 77.9551C92.9036 78.7038 93.6361 79.4688 94.1895 80.25C94.7428 81.0312 95.1172 81.7148 95.3125 82.3008C95.3451 82.4635 95.3613 82.6914 95.3613 82.9844C95.3613 83.4076 95.2799 84.026 95.1172 84.8398C94.9544 85.6536 94.7266 86.5651 94.4336 87.5742C94.1406 88.5833 93.8314 89.6413 93.5059 90.748C93.1803 91.8548 92.8385 92.9453 92.4805 94.0195C92.1224 95.0938 91.8131 96.054 91.5527 96.9004C91.2923 97.7467 91.0645 98.4466 90.8691 99H7.91016C7.64974 98.3164 7.34049 97.5026 6.98242 96.5586C6.62435 95.6146 6.28255 94.6543 5.95703 93.6777C5.63151 92.7012 5.33854 91.7409 5.07812 90.7969C4.81771 89.8529 4.6875 89.0391 4.6875 88.3555C4.6875 87.5417 4.88281 86.8906 5.27344 86.4023C5.66406 85.9141 6.15234 85.4746 6.73828 85.084C7.32422 84.6934 7.94271 84.3516 8.59375 84.0586C9.24479 83.7656 9.86328 83.4401 10.4492 83.082C12.2396 81.8451 14.0462 80.6895 15.8691 79.6152C17.6921 78.541 19.5312 77.4505 21.3867 76.3438C21.6797 76.181 22.0866 75.9531 22.6074 75.6602C23.1283 75.3672 23.6816 75.0579 24.2676 74.7324C24.8535 74.4069 25.3743 74.0651 25.8301 73.707C26.2858 73.349 26.5951 73.0723 26.7578 72.877C26.888 72.6491 26.9531 72.3724 26.9531 72.0469C26.9531 71.6562 26.8717 71.2656 26.709 70.875C26.5462 70.4844 26.3509 70.0938 26.123 69.7031C25.8952 69.3125 25.6348 68.9381 25.3418 68.5801C25.0488 68.222 24.8372 67.8477 24.707 67.457C24.2513 66.513 23.8932 65.5527 23.6328 64.5762C23.3724 63.5996 23.1934 62.5742 23.0957 61.5C21.2402 61.207 19.6452 60.5397 18.3105 59.498C16.9759 58.4564 15.8366 57.1868 14.8926 55.6895C13.9486 54.1921 13.2812 52.5807 12.8906 50.8555C12.5 49.1302 12.2721 47.4049 12.207 45.6797C12.207 44.8333 12.2884 43.8893 12.4512 42.8477C12.6139 41.806 12.8743 40.9108 13.2324 40.1621C13.3626 39.9342 13.4928 39.7389 13.623 39.5762C13.7533 39.4134 13.8997 39.2344 14.0625 39.0391C14.2253 38.8438 14.3229 38.6484 14.3555 38.4531C14.388 38.2578 14.4368 37.9811 14.502 37.623C14.502 36.8418 14.4043 36.028 14.209 35.1816C14.0137 34.3353 13.8997 33.3913 13.8672 32.3496C13.8672 31.1452 13.9323 29.8594 14.0625 28.4922C14.1927 27.125 14.4857 25.7904 14.9414 24.4883C15.3971 23.1862 15.9993 22.0306 16.748 21.0215C17.4967 20.0124 18.5221 19.2148 19.8242 18.6289C20.3125 16.7409 21.0938 15.1133 22.168 13.7461C23.2422 12.3789 24.4792 11.1582 25.8789 10.084C27.2786 9.00977 28.7923 8.04948 30.4199 7.20312C32.0475 6.35677 33.6263 5.47786 35.1562 4.56641C38.3464 2.74349 41.7969 1.36003 45.5078 0.416016C49.2188 -0.527995 52.9134 -1 56.5918 -1C58.252 -1 59.9609 -0.902344 61.7188 -0.707031C63.4766 -0.511719 65.2018 -0.202474 66.8945 0.220703C68.5872 0.64388 70.2474 1.19727 71.875 1.88086C73.5026 2.56445 75 3.42708 76.3672 4.46875C77.2786 5.15234 78.2715 5.98242 79.3457 6.95898C80.4199 7.93555 81.4779 8.97721 82.5195 10.084C83.5612 11.1908 84.5215 12.3301 85.4004 13.502C86.2793 14.6738 86.9629 15.748 87.4512 16.7246C88.1999 18.2546 88.8184 19.8822 89.3066 21.6074C89.7949 23.3327 90.2018 25.1068 90.5273 26.9297C90.8529 28.7526 91.0807 30.5592 91.2109 32.3496C91.3411 34.14 91.4062 35.8978 91.4062 37.623C91.4062 39.6087 91.3086 41.7897 91.1133 44.166C90.918 46.5423 90.625 48.9349 90.2344 51.3438C89.8438 53.7526 89.3229 56.0964 88.6719 58.375C88.0208 60.6536 87.2721 62.7044 86.4258 64.5273C86.263 64.8854 86.0352 65.2923 85.7422 65.748C85.4492 66.2038 85.1562 66.6921 84.8633 67.2129C84.5703 67.7337 84.3262 68.2383 84.1309 68.7266C83.9355 69.2148 83.8216 69.638 83.7891 69.9961ZM62.7441 91.5781V90.5527C62.7441 90.2272 62.7604 89.8691 62.793 89.4785C62.0768 89.1204 61.3444 88.86 60.5957 88.6973C59.847 88.5345 59.0495 88.4043 58.2031 88.3066C58.8867 87.9811 59.6029 87.7695 60.3516 87.6719C61.1003 87.5742 61.8164 87.3301 62.5 86.9395V86.1094C62.0117 86.0768 61.5885 85.9954 61.2305 85.8652C60.8724 85.735 60.5469 85.5885 60.2539 85.4258C59.9609 85.263 59.6517 85.084 59.3262 84.8887C59.0007 84.6934 58.6426 84.4818 58.252 84.2539C57.7637 83.9935 57.1126 83.6842 56.2988 83.3262C55.485 82.9681 54.6224 82.61 53.7109 82.252C52.7995 81.8939 51.9206 81.6009 51.0742 81.373C50.2279 81.1452 49.5443 81.0312 49.0234 81.0312C48.3724 81.0312 47.8841 81.2428 47.5586 81.666C47.2331 82.0892 46.9727 82.5938 46.7773 83.1797C46.582 83.7656 46.4681 84.4004 46.4355 85.084C46.403 85.7676 46.3867 86.3047 46.3867 86.6953V88.0625C46.3867 88.5182 46.4193 88.974 46.4844 89.4297C46.5495 90.7318 46.8099 91.9525 47.2656 93.0918C47.7214 94.2311 48.1608 95.4193 48.584 96.6562C48.7142 97.0143 48.8281 97.3724 48.9258 97.7305C49.0234 98.0885 49.2676 98.3652 49.6582 98.5605C49.7233 98.5931 49.8372 98.6094 50 98.6094C50.3581 98.6094 50.8138 98.5443 51.3672 98.4141C51.9206 98.2839 52.5065 98.1048 53.125 97.877C53.7435 97.6491 54.3294 97.4212 54.8828 97.1934C55.4362 96.9655 55.8757 96.7539 56.2012 96.5586C57.4382 95.9076 58.5449 95.11 59.5215 94.166C60.498 93.222 61.5723 92.3594 62.7441 91.5781ZM59.4727 81.4707C60.4492 82.252 61.3932 82.8053 62.3047 83.1309C63.2161 83.4564 64.3229 83.6191 65.625 83.6191H66.3086C66.5365 83.6191 66.7643 83.6029 66.9922 83.5703C67.7409 83.0169 68.457 82.4473 69.1406 81.8613C69.8242 81.2754 70.5566 80.7383 71.3379 80.25C70.5892 80.3151 69.8568 80.429 69.1406 80.5918C68.4245 80.7546 67.7083 80.9173 66.9922 81.0801C66.276 81.2428 65.5599 81.4056 64.8438 81.5684C64.1276 81.7311 63.3952 81.7962 62.6465 81.7637C62.1582 81.7637 61.6699 81.7311 61.1816 81.666C60.6934 81.6009 60.2214 81.4381 59.7656 81.1777L59.4727 81.4707ZM64.5996 90.1133C64.9577 90.2435 65.3646 90.3086 65.8203 90.3086C66.569 90.3086 67.1387 90.0807 67.5293 89.625C67.9199 89.1693 68.1315 88.5833 68.1641 87.8672C68.1641 87.2487 67.985 86.6953 67.627 86.207C67.2689 85.7188 66.748 85.4583 66.0645 85.4258C65.7064 85.4258 65.3646 85.4909 65.0391 85.6211C64.7135 85.7513 64.388 85.9303 64.0625 86.1582V86.4512C64.0625 86.5488 64.0462 86.6628 64.0137 86.793C64.0137 87.3464 64.0788 87.8997 64.209 88.4531C64.3392 89.0065 64.4694 89.5599 64.5996 90.1133ZM80.127 92.1152C80.485 91.627 80.7129 91.041 80.8105 90.3574C80.9082 89.6738 80.9733 89.0228 81.0059 88.4043C81.0059 87.9811 80.9733 87.3626 80.9082 86.5488C80.8431 85.735 80.7454 84.9212 80.6152 84.1074C80.485 83.2936 80.2897 82.5286 80.0293 81.8125C79.7689 81.0964 79.4434 80.6244 79.0527 80.3965C78.6947 80.1686 78.2715 80.0547 77.7832 80.0547C76.9694 80.0547 76.2044 80.2337 75.4883 80.5918C74.7721 80.9499 74.0723 81.3568 73.3887 81.8125C72.7051 82.2682 72.0378 82.7565 71.3867 83.2773C70.7357 83.7982 70.0521 84.1725 69.3359 84.4004C69.4661 84.7585 69.5964 85.084 69.7266 85.377C69.8568 85.6699 69.9381 86.0117 69.9707 86.4023C70.3613 86.3047 70.7682 86.2559 71.1914 86.2559C72.0703 86.2559 72.9167 86.4349 73.7305 86.793C73.2096 86.8581 72.6237 86.9069 71.9727 86.9395C71.3216 86.972 70.7845 87.1673 70.3613 87.5254C70.2637 87.8184 70.2148 88.1439 70.2148 88.502V89.2344C70.2148 89.4622 70.2311 89.7227 70.2637 90.0156C70.2637 90.3411 70.2474 90.5853 70.2148 90.748C71.8424 91.2038 73.4863 91.5293 75.1465 91.7246C76.8066 91.9199 78.4668 92.0501 80.127 92.1152ZM61.7188 78.8828C62.9557 78.8828 64.2253 78.7526 65.5273 78.4922C66.8294 78.2318 68.1478 77.8411 69.4824 77.3203C70.8171 76.7995 72.054 76.2461 73.1934 75.6602C74.3327 75.0742 75.4395 74.3744 76.5137 73.5605C77.5553 72.8119 78.4505 71.8841 79.1992 70.7773C79.9479 69.6706 80.6803 68.5964 81.3965 67.5547C82.7637 65.5365 83.9355 63.4043 84.9121 61.1582C85.8887 58.9121 86.6862 56.6009 87.3047 54.2246C87.9232 51.8483 88.3789 49.4232 88.6719 46.9492C88.9648 44.4753 89.1113 42.0339 89.1113 39.625C89.1113 38.6484 89.0951 37.4766 89.0625 36.1094C89.0299 34.7422 88.9648 33.3262 88.8672 31.8613C88.7695 30.3965 88.5742 29.013 88.2812 27.7109C87.9883 26.4089 87.6465 25.3184 87.2559 24.4395C86.9629 23.821 86.556 23.2513 86.0352 22.7305C85.5143 22.2096 84.9447 21.7376 84.3262 21.3145C83.7077 20.8913 83.0241 20.5658 82.2754 20.3379C81.5267 20.11 80.8268 19.9961 80.1758 19.9961C78.9714 19.9961 77.9134 20.403 77.002 21.2168C76.9694 21.0866 76.9531 20.9727 76.9531 20.875C76.9531 20.7773 76.9369 20.6309 76.9043 20.4355C76.9043 19.8496 77.0345 19.3451 77.2949 18.9219C77.5553 18.4987 77.8971 18.1243 78.3203 17.7988C78.7435 17.4733 79.2155 17.2617 79.7363 17.1641C80.2572 17.0664 80.778 16.985 81.2988 16.9199C81.6569 16.9199 82.015 16.9525 82.373 17.0176C82.7311 17.0827 83.0892 17.1641 83.4473 17.2617C82.7637 16.3828 82.0801 15.4714 81.3965 14.5273C80.7129 13.5833 79.9967 12.6719 79.248 11.793C78.4994 10.9141 77.6855 10.1003 76.8066 9.35156C75.9277 8.60286 75 7.93555 74.0234 7.34961C72.7865 6.66602 71.4518 6.03125 70.0195 5.44531C68.5872 4.85938 67.1224 4.35482 65.625 3.93164C64.1276 3.50846 62.5977 3.18294 61.0352 2.95508C59.4727 2.72721 58.0078 2.61328 56.6406 2.61328C55.2734 2.61328 53.9225 2.72721 52.5879 2.95508C51.2533 3.18294 49.9512 3.6224 48.6816 4.27344C47.2493 4.98958 45.7194 5.81966 44.0918 6.76367C42.4642 7.70768 40.9017 8.74935 39.4043 9.88867C37.9069 11.028 36.5234 12.2975 35.2539 13.6973C33.9844 15.097 33.0241 16.5293 32.373 17.9941C32.9915 19.459 33.3008 21.0378 33.3008 22.7305C33.3008 23.8047 33.2031 24.8626 33.0078 25.9043C32.8125 26.946 32.6009 27.9876 32.373 29.0293C32.1452 30.071 31.9336 31.1289 31.7383 32.2031C31.543 33.2773 31.4453 34.3353 31.4453 35.377C31.4453 36.1582 31.5104 36.9232 31.6406 37.6719C31.7708 38.4206 31.9499 39.1693 32.1777 39.918C32.4056 40.6667 32.5846 41.4154 32.7148 42.1641C32.8451 42.9128 32.959 43.6777 33.0566 44.459C32.8288 44.7845 32.5358 45.0449 32.1777 45.2402C31.8197 45.4355 31.429 45.582 31.0059 45.6797C30.5827 45.7773 30.1595 45.8424 29.7363 45.875C29.3132 45.9076 28.9225 45.9238 28.5645 45.9238H27.7832C27.6204 45.1426 27.4251 44.3451 27.1973 43.5312C26.9694 42.7174 26.6439 41.985 26.2207 41.334C25.7975 40.6829 25.2767 40.1458 24.6582 39.7227C24.0397 39.2995 23.2259 39.0879 22.2168 39.0879C21.2402 39.0879 20.3125 39.2832 19.4336 39.6738C18.5547 40.0645 17.806 40.6178 17.1875 41.334C16.569 42.0501 16.0645 42.8314 15.6738 43.6777C15.2832 44.5241 15.0879 45.4518 15.0879 46.4609C15.0879 47.5352 15.2832 48.7233 15.6738 50.0254C16.0645 51.3275 16.6178 52.5319 17.334 53.6387C18.0501 54.7454 18.9128 55.6895 19.9219 56.4707C20.931 57.252 22.0703 57.6263 23.3398 57.5938C23.8607 57.5938 24.3164 57.4798 24.707 57.252C25.0977 57.0241 25.5046 56.7799 25.9277 56.5195C26.3509 56.2591 26.7415 56.015 27.0996 55.7871C27.4577 55.5592 27.9297 55.429 28.5156 55.3965L28.7109 55.8848C28.776 56.0475 28.8086 56.2428 28.8086 56.4707C28.8086 56.8613 28.6784 57.2194 28.418 57.5449C28.1576 57.8704 27.8809 58.196 27.5879 58.5215C27.2949 58.847 27.0182 59.1237 26.7578 59.3516C26.4974 59.5794 26.3672 59.8724 26.3672 60.2305C26.3672 60.6862 26.3997 61.1419 26.4648 61.5977C26.5299 62.0534 26.6276 62.5254 26.7578 63.0137V63.1113C26.7578 63.1439 26.7741 63.1764 26.8066 63.209C27.002 64.0553 27.2786 65.0156 27.6367 66.0898C27.9948 67.1641 28.4017 68.2708 28.8574 69.4102C29.3132 70.5495 29.8177 71.6237 30.3711 72.6328C30.9245 73.6419 31.4616 74.5046 31.9824 75.2207C32.6986 76.2298 33.5938 77.0273 34.668 77.6133C35.7422 78.1992 36.8815 78.6549 38.0859 78.9805C39.2904 79.306 40.5436 79.5339 41.8457 79.6641C43.1478 79.7943 44.3522 79.8919 45.459 79.957C45.8171 79.2083 46.3867 78.7201 47.168 78.4922C47.9492 78.2643 48.7305 78.1504 49.5117 78.1504C50.4883 78.1504 51.4974 78.2806 52.5391 78.541C51.0417 77.9225 49.6419 77.0111 48.3398 75.8066C47.0378 74.6022 45.8496 73.3978 44.7754 72.1934C44.1895 71.5423 43.5872 70.8587 42.9688 70.1426C42.3503 69.4264 41.7969 68.6777 41.3086 67.8965C40.8203 67.1152 40.3971 66.3014 40.0391 65.4551C39.681 64.6087 39.502 63.6973 39.502 62.7207C40.7715 64.4785 41.9922 66.1224 43.1641 67.6523C44.3359 69.1823 45.6055 70.6146 46.9727 71.9492C48.3398 73.2839 49.821 74.472 51.416 75.5137C53.0111 76.5553 54.8991 77.4342 57.0801 78.1504C58.5449 78.6387 60.0911 78.8828 61.7188 78.8828ZM74.5117 63.0625C74.4792 62.6719 74.4629 62.2812 74.4629 61.8906C74.4629 61.5 74.4466 61.0931 74.4141 60.6699V59.9375C74.4141 59.7096 74.4466 59.4818 74.5117 59.2539C75.5859 59.1562 76.5625 58.9609 77.4414 58.668C78.3203 58.375 79.1829 58.0332 80.0293 57.6426C80.8756 57.252 81.6895 56.8288 82.4707 56.373C83.252 55.9173 84.1309 55.4779 85.1074 55.0547C84.5215 56.1615 83.903 57.1868 83.252 58.1309C82.6009 59.0749 81.8359 59.9212 80.957 60.6699C80.0781 61.4186 79.1341 61.9883 78.125 62.3789C77.1159 62.7695 75.9115 62.9974 74.5117 63.0625ZM66.4551 57.252C65.9668 56.8288 65.6087 56.3079 65.3809 55.6895C65.153 55.071 65.0228 54.4362 64.9902 53.7852C64.9902 52.8086 65.2669 51.946 65.8203 51.1973C66.1133 51.6855 66.2923 52.1738 66.3574 52.6621C66.4225 53.1504 66.5365 53.6061 66.6992 54.0293C66.862 54.4525 67.1061 54.7617 67.4316 54.957C67.7572 55.1523 68.3919 55.2826 69.3359 55.3477C70.2474 55.3477 71.1426 55.2174 72.0215 54.957C72.9004 54.6966 73.7467 54.3874 74.5605 54.0293C75.3744 53.6712 76.2044 53.2806 77.0508 52.8574C77.8971 52.4342 78.7435 52.0599 79.5898 51.7344C79.7852 51.4089 79.9479 51.0671 80.0781 50.709C80.2083 50.3509 80.2734 49.9766 80.2734 49.5859C80.2734 49.0977 80.0293 48.5117 79.541 47.8281C79.0527 47.1445 78.4505 46.3633 77.7344 45.4844C77.0182 44.6055 76.2207 43.6452 75.3418 42.6035C74.4629 41.5618 73.6816 40.4551 72.998 39.2832C72.3145 38.1113 71.696 36.8581 71.1426 35.5234C70.5892 34.1888 70.3451 32.8216 70.4102 31.4219V31.1289C70.4102 31.0964 70.4264 31.0801 70.459 31.0801C70.6543 30.9499 70.8171 30.8848 70.9473 30.8848C71.1426 30.8848 71.3053 30.9661 71.4355 31.1289C71.5658 31.2917 71.6634 31.5033 71.7285 31.7637C71.7936 32.0241 71.8424 32.252 71.875 32.4473C71.9076 32.6426 71.9564 32.8379 72.0215 33.0332C72.3796 33.9121 72.9167 34.9212 73.6328 36.0605C74.349 37.1999 75.1628 38.3555 76.0742 39.5273C76.9857 40.6992 77.8646 41.806 78.7109 42.8477C79.5573 43.8893 80.3548 44.7682 81.1035 45.4844C81.2337 45.6146 81.4128 45.7611 81.6406 45.9238C81.8685 46.0866 82.0964 46.2819 82.3242 46.5098C82.5521 46.7376 82.7474 46.9329 82.9102 47.0957C83.0729 47.2585 83.2031 47.4375 83.3008 47.6328C83.3333 47.763 83.3496 47.9583 83.3496 48.2188C83.3496 48.9023 83.2031 49.5534 82.9102 50.1719C82.6172 50.7904 82.4544 51.4251 82.4219 52.0762V52.2715C81.3151 52.9876 80.2246 53.6549 79.1504 54.2734C78.0762 54.8919 76.9857 55.429 75.8789 55.8848C74.7721 56.3405 73.6165 56.6986 72.4121 56.959C71.2077 57.2194 69.9219 57.3496 68.5547 57.3496H67.5293C67.2038 57.3496 66.8457 57.3171 66.4551 57.252ZM62.9395 37.9648C62.9395 38.6159 62.7767 39.153 62.4512 39.5762C62.1257 39.9993 61.6862 40.3574 61.1328 40.6504C60.5794 40.9434 60.026 41.1224 59.4727 41.1875C58.9193 41.2526 58.3496 41.3014 57.7637 41.334C57.4056 41.334 56.9499 41.3177 56.3965 41.2852C55.8431 41.2526 55.306 41.1387 54.7852 40.9434C54.2643 40.748 53.8086 40.5039 53.418 40.2109C53.0273 39.918 52.832 39.5111 52.832 38.9902C52.832 38.5671 52.9785 38.1276 53.2715 37.6719C54.0853 37.7044 54.8828 37.8184 55.6641 38.0137C56.4453 38.209 57.2591 38.3066 58.1055 38.3066C58.5612 38.3066 58.9844 38.2578 59.375 38.1602C59.7656 38.0625 60.14 37.8346 60.498 37.4766C60.1725 36.9557 59.8307 36.3861 59.4727 35.7676C59.1146 35.1491 58.7891 34.498 58.4961 33.8145C58.2031 33.1309 57.9427 32.4473 57.7148 31.7637C57.487 31.0801 57.3893 30.429 57.4219 29.8105C57.4219 29.3548 57.487 28.9479 57.6172 28.5898C57.9102 29.1432 58.1706 29.7129 58.3984 30.2988C58.6263 30.8848 58.8704 31.4544 59.1309 32.0078C59.3913 32.5612 59.668 33.0983 59.9609 33.6191C60.2539 34.14 60.6445 34.6445 61.1328 35.1328C61.5885 35.556 61.9954 35.9629 62.3535 36.3535C62.7116 36.7441 62.9069 37.2812 62.9395 37.9648ZM56.5918 61.1094C57.1126 62.444 57.8776 63.4857 58.8867 64.2344C59.8958 64.9831 61.0352 65.5365 62.3047 65.8945C63.5742 66.2526 64.8763 66.4805 66.2109 66.5781C67.5456 66.6758 68.8314 66.7246 70.0684 66.7246H72.7051C73.584 66.7246 74.4792 66.6921 75.3906 66.627C75.0651 67.3756 74.5768 67.9616 73.9258 68.3848C73.2747 68.8079 72.5423 69.1172 71.7285 69.3125C70.9147 69.5078 70.0846 69.638 69.2383 69.7031C68.3919 69.7682 67.5944 69.8008 66.8457 69.8008C65.9017 69.8008 64.9414 69.7357 63.9648 69.6055C62.9883 69.4753 62.0768 69.1823 61.2305 68.7266C60.6771 68.4336 60.2051 68.0918 59.8145 67.7012C59.4238 67.3105 59.0495 66.8874 58.6914 66.4316C58.3333 65.9759 57.9915 65.5202 57.666 65.0645C57.3405 64.6087 56.9987 64.1367 56.6406 63.6484C56.543 63.5182 56.4128 63.3717 56.25 63.209C56.0872 63.0462 55.9082 62.8835 55.7129 62.7207C55.5176 62.5579 55.3548 62.3789 55.2246 62.1836C55.0944 61.9883 55.0293 61.8255 55.0293 61.6953C55.0293 61.5651 55.0944 61.4674 55.2246 61.4023C55.3548 61.3372 55.5013 61.2721 55.6641 61.207C55.8268 61.1419 56.0059 61.1094 56.2012 61.1094C56.3965 61.1094 56.5267 61.1094 56.5918 61.1094ZM51.5625 18.2383C51.888 18.2383 52.2461 18.2871 52.6367 18.3848C53.0273 18.4824 53.4017 18.6452 53.7598 18.873C54.1178 19.1009 54.3945 19.3451 54.5898 19.6055C54.7852 19.8659 54.8991 20.224 54.9316 20.6797C54.9316 21.0378 54.8177 21.4121 54.5898 21.8027C53.8086 21.6074 53.0111 21.5098 52.1973 21.5098C51.123 21.5098 50.179 21.6888 49.3652 22.0469C48.5514 22.4049 47.8027 22.9095 47.1191 23.5605C46.4355 24.2116 45.8333 24.9277 45.3125 25.709C44.7917 26.4902 44.3359 27.3366 43.9453 28.248C43.5547 28.1504 43.2943 27.9714 43.1641 27.7109C43.0339 27.4505 42.9525 27.125 42.9199 26.7344C42.9199 25.7578 43.1966 24.7812 43.75 23.8047C44.3034 22.8281 45.0033 21.9167 45.8496 21.0703C46.696 20.224 47.6237 19.5404 48.6328 19.0195C49.6419 18.4987 50.6185 18.2383 51.5625 18.2383ZM57.3242 57.4961C58.1706 57.9518 59.1471 58.3099 60.2539 58.5703C61.3607 58.8307 62.5163 59.026 63.7207 59.1562C64.9251 59.2865 66.1133 59.3841 67.2852 59.4492C68.457 59.5143 69.515 59.5469 70.459 59.5469H71.6797C72.0703 59.5469 72.4609 59.5306 72.8516 59.498C72.9492 59.9538 73.0143 60.4095 73.0469 60.8652C73.0794 61.321 73.0957 61.8092 73.0957 62.3301V63.3066H72.3633C72.1354 63.3066 71.875 63.3229 71.582 63.3555C70.4753 63.3555 69.2057 63.2741 67.7734 63.1113C66.3411 62.9486 64.9089 62.6556 63.4766 62.2324C62.0443 61.8092 60.7747 61.2233 59.668 60.4746C58.5612 59.7259 57.7799 58.7331 57.3242 57.4961Z" fill="black" fill-opacity="0.8"/>
</svg>
